# xmcd
#
# Track frame offsets: 
#        150
#        11012
#        20778
#        35011
#        47611
#        57886
#        69719
#        82019
#        94485
#        105312
#        114667
#        127845
#        139685
#        150310
#        163167
#        175115
#        186182
#        197681
#        209352
#        221555
#        231005
#        243724
#        253378
#        263988
#
# Disc length: 3647 seconds
#
# Revision: 0
# Processed by: cddbd v1.5.2PL0 Copyright (c) Steve Scherf et al.
# Submitted via: ExactAudioCopy v1.0b3
#
DISCID=5e0e3d18
DTITLE=Reno and Smiley and The Tennessee Cut-Ups - Reno and Smiley 1959-63 C
DTITLE=D3
DYEAR=2011
DGENRE=Bluegrass
TTITLE0=Confederate Flag
TTITLE1=The First Shot
TTITLE2=Lee's Command
TTITLE3=Appomattox
TTITLE4=Out Behind The Barn
TTITLE5=Ten Paces
TTITLE6=Corrine, Corrina
TTITLE7=Signed, Sealed And Delivered
TTITLE8=Row Your Boat (Alternate Version)
TTITLE9=Row Your Boat
TTITLE10=Just About Then
TTITLE11=Greenback Dollar
TTITLE12=Little Red School House
TTITLE13=Garden In The Sky
TTITLE14=I'm Jealous Of You
TTITLE15=Excuse Me (I've Got A Heartache)
TTITLE16=Honky Tonk Heaven (Previously Unreleased)
TTITLE17=Make Believe Heaven
TTITLE18=Only In A Dreamworld
TTITLE19=Kansas City Railroad Blues
TTITLE20=I'll See It Happen To You
TTITLE21=Grandfather's Clock
TTITLE22=Black And White Rag
TTITLE23=Dill Pickles
EXTD=
EXTT0=
EXTT1=
EXTT2=
EXTT3=
EXTT4=
EXTT5=
EXTT6=
EXTT7=
EXTT8=
EXTT9=
EXTT10=
EXTT11=
EXTT12=
EXTT13=
EXTT14=
EXTT15=
EXTT16=
EXTT17=
EXTT18=
EXTT19=
EXTT20=
EXTT21=
EXTT22=
EXTT23=
PLAYORDER=
